<svg width="48" height="48" viewBox="0 0 48 48" fill="none" xmlns="http://www.w3.org/2000/svg">
<g clip-path="url(#clip0_1_1898)">
<rect width="48" height="48" rx="24" fill="white"/>
<path d="M26.2057 61.7943C47.0789 60.5761 63.0125 42.6675 61.7943 21.7943C60.5762 0.921047 42.6675 -15.0125 21.7943 -13.7944C0.921093 -12.5762 -15.0125 5.33241 -13.7943 26.2056C-12.5762 47.0789 5.33245 63.0124 26.2057 61.7943Z" fill="#0F7729"/>
<path d="M24.0464 59.085C15.3777 59.0917 7.01438 55.8837 0.573934 50.0813C-5.86651 44.279 -9.92656 36.2945 -10.821 27.672C-11.7155 19.0496 -9.38084 10.4018 -4.26855 3.40094C0.843734 -3.59987 8.37043 -8.45626 16.8559 -10.2291C25.3415 -12.0019 34.1829 -10.5651 41.6705 -6.19665C49.158 -1.8282 54.7597 5.16158 57.3922 13.4209C60.0247 21.6803 59.5009 30.6224 55.9222 38.5179C52.3436 46.4135 45.9642 52.7016 38.0179 56.166C33.6118 58.092 28.855 59.0858 24.0464 59.085ZM23.9589 -10.5321C15.3222 -10.5464 6.9909 -7.33732 0.595519 -1.53278C-5.79986 4.27176 -9.79901 12.2539 -10.6193 20.8517C-11.4396 29.4494 -9.022 38.0438 -3.83962 44.9529C1.34276 51.8621 8.91689 56.5887 17.4005 58.2078C25.8842 59.8268 34.6667 58.2218 42.0293 53.7068C49.392 49.1919 54.8048 42.0919 57.2085 33.7963C59.6122 25.5008 58.8338 16.6069 55.0256 8.855C51.2174 1.10315 44.6536 -4.94863 36.6185 -8.11601C32.5889 -9.7129 28.2934 -10.5327 23.9589 -10.5321Z" fill="#FAFAFA"/>
<path d="M29.6987 58.3689C28.0179 58.3565 26.3525 58.0474 24.7791 57.4561C17.2358 54.6902 10.0205 45.8569 5.90995 34.4053C-0.540122 16.3669 2.29682 -2.97233 12.2234 -8.71727C15.5031 -10.614 19.2966 -10.8655 23.1885 -9.4388C30.7263 -6.67293 37.9471 2.16039 42.0522 13.612C48.5023 31.6503 45.6708 50.9896 35.7388 56.7345C33.9066 57.8067 31.8216 58.3709 29.6987 58.3689ZM18.3017 -9.80504C16.2683 -9.80765 14.2706 -9.27003 12.5131 -8.24718C2.7997 -2.62797 0.0775609 16.4271 6.44564 34.2249C10.4851 45.5234 17.5911 54.231 24.9869 56.9423C28.7202 58.3088 32.3498 58.0737 35.4819 56.2645C45.2007 50.6452 47.9338 31.5902 41.5548 13.7924C37.5153 2.49383 30.4093 -6.21377 23.0136 -8.92499C21.5069 -9.49288 19.9118 -9.79079 18.3017 -9.80504Z" fill="#FAFAFA"/>
<path d="M-9.72334 32.9021C-9.79583 32.9115 -9.86909 32.8917 -9.92701 32.8472C-9.98493 32.8026 -10.0228 32.7368 -10.0322 32.6643C-10.0416 32.5918 -10.0219 32.5186 -9.97726 32.4606C-9.93267 32.4027 -9.86689 32.3649 -9.79441 32.3555L57.658 15.1207C57.6925 15.1109 57.7286 15.1083 57.7641 15.113C57.7997 15.1177 57.8338 15.1297 57.8646 15.1481C57.8953 15.1665 57.9219 15.1911 57.9428 15.2202C57.9637 15.2493 57.9784 15.2824 57.986 15.3174C57.995 15.3523 57.9971 15.3885 57.9921 15.4241C57.9871 15.4598 57.9751 15.494 57.9568 15.525C57.9385 15.556 57.9143 15.5831 57.8856 15.6047C57.8568 15.6263 57.8241 15.642 57.7892 15.6509L-9.65775 32.8912L-9.72334 32.9021Z" fill="#FAFAFA"/>
<path d="M32.6283 58.0082C32.5675 58.0085 32.5084 57.9881 32.4607 57.9504C32.413 57.9126 32.3796 57.8598 32.366 57.8005L15.1366 -9.64645C15.1198 -9.71669 15.131 -9.7907 15.1677 -9.8529C15.2044 -9.91509 15.2638 -9.96062 15.3334 -9.97988C15.3682 -9.98892 15.4045 -9.99099 15.4401 -9.98599C15.4757 -9.98098 15.51 -9.969 15.541 -9.95072C15.5719 -9.93243 15.599 -9.90822 15.6206 -9.87945C15.6422 -9.85069 15.6579 -9.81795 15.6668 -9.7831L32.9016 57.6639C32.9107 57.6987 32.9128 57.7349 32.9077 57.7706C32.9027 57.8062 32.8908 57.8405 32.8725 57.8714C32.8542 57.9024 32.83 57.9295 32.8012 57.9511C32.7724 57.9727 32.7397 57.9884 32.7049 57.9973L32.6283 58.0082Z" fill="#FAFAFA"/>
<path d="M-0.370678 49.1311C-0.432183 49.1317 -0.492082 49.1115 -0.540687 49.0738C-0.589291 49.0361 -0.623764 48.9832 -0.638523 48.9234C-0.647499 48.889 -0.649514 48.8531 -0.644445 48.8178C-0.639375 48.7826 -0.627321 48.7487 -0.608997 48.7181C-0.590673 48.6876 -0.566445 48.661 -0.537726 48.6399C-0.509006 48.6189 -0.476375 48.6038 -0.441741 48.5955L57.2208 33.8368C57.2556 33.8278 57.2919 33.8257 57.3275 33.8307C57.3631 33.8357 57.3974 33.8477 57.4284 33.866C57.4593 33.8843 57.4864 33.9085 57.508 33.9373C57.5296 33.966 57.5453 33.9988 57.5542 34.0336C57.571 34.1039 57.5599 34.1779 57.5232 34.2401C57.4865 34.3023 57.427 34.3478 57.3574 34.367L-0.305087 49.1257C-0.32618 49.1328 -0.348695 49.1347 -0.370678 49.1311Z" fill="#FAFAFA"/>
<path d="M-9.28601 14.1695C-9.3585 14.1789 -9.43177 14.1592 -9.48968 14.1146C-9.5476 14.07 -9.58543 14.0042 -9.59485 13.9317C-9.60427 13.8592 -9.58452 13.786 -9.53993 13.7281C-9.49534 13.6701 -9.42956 13.6323 -9.35708 13.6229L48.3054 -1.10842C48.3403 -1.11746 48.3765 -1.11953 48.4121 -1.11453C48.4478 -1.10952 48.482 -1.09753 48.513 -1.07925C48.544 -1.06097 48.5711 -1.03676 48.5927 -1.00799C48.6143 -0.97923 48.63 -0.946487 48.6389 -0.911641C48.6555 -0.842098 48.6442 -0.768806 48.6074 -0.707494C48.5706 -0.646182 48.5113 -0.60173 48.4421 -0.583668L-9.22042 14.175L-9.28601 14.1695Z" fill="#FAFAFA"/>
<path d="M15.1258 36.291L23.9974 10.212H20.4936L7.70826 23.7681L-1.19064 36.8704H2.31316L10.4468 28.7423L11.622 36.291H15.1258Z" fill="#0F7729"/>
<path d="M11.6221 36.291L20.4937 10.212L-5.58534 19.0836L1.9689 23.7681L-6.16475 31.9017L-1.19054 36.8704L6.93764 28.7423L11.6221 36.291Z" fill="#FAFAFA"/>
</g>
<defs>
<clipPath id="clip0_1_1898">
<rect width="48" height="48" rx="24" fill="white"/>
</clipPath>
</defs>
</svg>
